<?xml version="1.0" encoding="utf-8"?>
<!-- Generator: Adobe Illustrator 16.0.0, SVG Export Plug-In . SVG Version: 6.00 Build 0)  -->
<!DOCTYPE svg PUBLIC "-//W3C//DTD SVG 1.1//EN" "http://www.w3.org/Graphics/SVG/1.1/DTD/svg11.dtd">
<svg version="1.1" id="Layer_1" xmlns="http://www.w3.org/2000/svg" xmlns:xlink="http://www.w3.org/1999/xlink" x="0px" y="0px"
	 width="50px" height="50px" viewBox="0 0 50 50" enable-background="new 0 0 50 50" xml:space="preserve">
<path d="M49.986,24.729c-0.002-0.219-0.019-0.435-0.035-0.65l-0.04-0.686c-0.014-0.313-0.027-0.626-0.06-0.938
	c-0.036-0.37-0.095-0.735-0.155-1.104l-0.085-0.557c-0.033-0.234-0.066-0.466-0.112-0.7c-0.103-0.518-0.239-1.026-0.374-1.533
	l-0.068-0.274c-0.041-0.171-0.083-0.343-0.134-0.51c-0.162-0.544-0.359-1.072-0.557-1.602l-0.089-0.247
	c-0.049-0.144-0.099-0.287-0.158-0.429c-0.215-0.527-0.466-1.041-0.719-1.554l-0.115-0.243c-0.063-0.138-0.127-0.276-0.199-0.411
	c-0.265-0.499-0.564-0.981-0.864-1.464l-0.15-0.253c-0.078-0.135-0.156-0.268-0.242-0.396c-0.324-0.486-0.681-0.95-1.039-1.415
	l-0.172-0.233c-0.083-0.118-0.168-0.236-0.261-0.349c-0.535-0.652-1.1-1.278-1.681-1.858c-0.573-0.573-1.181-1.122-1.861-1.683
	c-0.11-0.09-0.225-0.173-0.34-0.254l-0.229-0.17c-0.47-0.361-0.939-0.724-1.429-1.048c-0.128-0.085-0.26-0.162-0.392-0.24
	l-0.231-0.136c-0.491-0.307-0.983-0.61-1.493-0.881c-0.128-0.068-0.257-0.127-0.386-0.188L36.091,2.62
	c-0.526-0.262-1.055-0.52-1.601-0.742c-0.124-0.05-0.25-0.095-0.375-0.139l-0.238-0.085c-0.55-0.208-1.099-0.411-1.664-0.58
	c-0.139-0.042-0.28-0.077-0.422-0.11l-0.315-0.081c-0.526-0.141-1.049-0.278-1.586-0.386c-0.19-0.036-0.382-0.064-0.574-0.092
	l-0.578-0.089c-0.401-0.065-0.803-0.13-1.209-0.171c-0.267-0.025-0.534-0.039-0.802-0.05l-0.729-0.042
	c-0.242-0.019-0.483-0.037-0.728-0.041l-0.786-0.009l-0.4,0.029l-0.003,0.015C17.731,0.28,11.792,2.855,7.324,7.324
	C2.851,11.796,0.276,17.737,0.049,24.09L0,24.102l0.014,1.17c0.002,0.243,0.02,0.482,0.039,0.722l0.044,0.75
	c0.012,0.262,0.024,0.523,0.049,0.785c0.041,0.411,0.106,0.814,0.171,1.218l0.083,0.54c0.029,0.202,0.057,0.403,0.098,0.604
	c0.102,0.521,0.237,1.031,0.393,1.617l0.07,0.276c0.035,0.144,0.07,0.286,0.112,0.432c0.17,0.563,0.373,1.11,0.58,1.66l0.09,0.25
	c0.043,0.122,0.086,0.243,0.135,0.365c0.223,0.543,0.48,1.072,0.741,1.601l0.111,0.234c0.058,0.127,0.116,0.252,0.181,0.376
	c0.271,0.51,0.576,1.002,0.883,1.496l0.145,0.243c0.075,0.127,0.149,0.252,0.23,0.376c0.319,0.482,0.675,0.945,1.048,1.43
	l0.162,0.221c0.085,0.118,0.17,0.236,0.263,0.349c0.539,0.657,1.105,1.284,1.682,1.86c0.582,0.583,1.208,1.148,1.859,1.681
	c0.115,0.094,0.233,0.179,0.352,0.266l0.23,0.169c0.465,0.357,0.93,0.715,1.414,1.037c0.133,0.089,0.27,0.17,0.408,0.249
	l0.312,0.188c0.459,0.283,0.919,0.569,1.394,0.819c0.141,0.074,0.284,0.141,0.426,0.206l0.228,0.105
	c0.512,0.254,1.027,0.507,1.554,0.723c0.139,0.057,0.28,0.104,0.421,0.154l0.255,0.092c0.528,0.199,1.057,0.393,1.598,0.557
	c0.165,0.05,0.333,0.091,0.5,0.133l0.317,0.079c0.499,0.133,0.996,0.264,1.505,0.365c0.227,0.044,0.456,0.077,0.684,0.11
	l0.622,0.094c0.348,0.058,0.697,0.112,1.054,0.149c0.302,0.029,0.603,0.042,0.905,0.056l0.7,0.042
	c0.222,0.017,0.444,0.033,0.668,0.035l0.785,0.009l0.4-0.029l0.003-0.015c6.351-0.229,12.289-2.803,16.76-7.274
	c4.474-4.475,7.048-10.417,7.274-16.768L50,25.897L49.986,24.729z M2.909,23.622c0.304-4.899,2.23-9.565,5.467-13.245L23,25
	l-3.398,3.397c-3.742-3.248-8.47-4.963-13.703-4.963C4.914,23.435,3.91,23.497,2.909,23.622z M17.598,30.402L8.37,39.63
	c-0.174-0.188-0.346-0.376-0.507-0.571c-0.079-0.096-0.152-0.195-0.225-0.295l-0.177-0.235c-0.305-0.396-0.608-0.793-0.884-1.205
	c-0.086-0.128-0.165-0.26-0.244-0.391L6.193,36.7c-0.25-0.399-0.496-0.802-0.716-1.213c-0.08-0.148-0.155-0.302-0.229-0.455
	l-0.097-0.2c-0.208-0.418-0.408-0.837-0.588-1.268c-0.075-0.177-0.142-0.357-0.209-0.538l-0.053-0.141
	c-0.164-0.429-0.318-0.858-0.453-1.293c-0.075-0.243-0.141-0.49-0.208-0.739c-0.115-0.422-0.221-0.846-0.311-1.271
	c-0.056-0.274-0.106-0.553-0.154-0.829c-0.067-0.4-0.126-0.8-0.172-1.198c-0.034-0.312-0.063-0.628-0.085-0.946
	c-0.004-0.056-0.007-0.113-0.011-0.168C8.462,25.666,13.68,27.081,17.598,30.402z M19.599,32.403
	c3.344,3.945,4.742,9.128,3.958,14.688c-0.047-0.002-0.094-0.006-0.141-0.008c-0.331-0.023-0.661-0.055-0.992-0.092
	c-0.384-0.044-0.767-0.1-1.152-0.166c-0.29-0.05-0.581-0.1-0.87-0.162c-0.416-0.087-0.828-0.191-1.236-0.3l-0.174-0.048
	c-0.197-0.054-0.394-0.107-0.591-0.168c-0.428-0.135-0.852-0.286-1.274-0.446l-0.192-0.071c-0.17-0.064-0.341-0.129-0.507-0.197
	c-0.423-0.177-0.839-0.378-1.252-0.58l-0.228-0.113c-0.146-0.069-0.293-0.142-0.438-0.219c-0.408-0.218-0.808-0.465-1.206-0.713
	l-0.238-0.144c-0.132-0.081-0.265-0.161-0.391-0.243c-0.409-0.273-0.804-0.577-1.2-0.883l-0.22-0.164
	c-0.106-0.077-0.212-0.153-0.312-0.236c-0.195-0.162-0.383-0.333-0.57-0.508L19.599,32.403z M21.603,30.398L25,27.001l14.623,14.624
	c-3.679,3.237-8.346,5.163-13.246,5.467C27.169,40.763,25.485,34.87,21.603,30.398z M28.398,19.602L25,23L10.377,8.376
	c3.679-3.237,8.345-5.163,13.244-5.467C22.831,9.24,24.516,15.13,28.398,19.602z M32.402,19.599l9.228-9.228
	c0.174,0.188,0.346,0.376,0.507,0.571c0.084,0.102,0.16,0.206,0.237,0.312l0.166,0.225c0.305,0.393,0.606,0.787,0.88,1.195
	c0.083,0.126,0.162,0.257,0.24,0.386l0.149,0.245c0.248,0.397,0.493,0.798,0.712,1.205c0.078,0.144,0.147,0.289,0.218,0.435
	l0.112,0.23c0.204,0.412,0.404,0.831,0.581,1.255c0.073,0.173,0.138,0.35,0.204,0.526l0.064,0.172
	c0.16,0.42,0.313,0.846,0.446,1.272c0.075,0.241,0.141,0.486,0.216,0.763c0.111,0.411,0.214,0.826,0.302,1.238
	c0.06,0.289,0.112,0.579,0.16,0.872c0.066,0.383,0.123,0.768,0.167,1.153c0.039,0.329,0.067,0.659,0.09,0.989
	c0.004,0.048,0.007,0.094,0.009,0.142C41.539,24.33,36.319,22.92,32.402,19.599z M30.398,21.603
	c4.445,3.86,10.361,5.563,16.692,4.774c-0.302,4.9-2.228,9.567-5.466,13.247L27.001,25L30.398,21.603z M30.401,17.598
	c-3.344-3.943-4.743-9.126-3.96-14.687l0.17,0.007c0.314,0.022,0.629,0.052,0.942,0.087c0.4,0.046,0.801,0.105,1.195,0.172
	c0.28,0.05,0.56,0.098,0.83,0.152c0.429,0.093,0.852,0.197,1.28,0.313c0.244,0.066,0.49,0.133,0.732,0.206
	c0.436,0.137,0.867,0.291,1.295,0.453l0.175,0.066c0.169,0.064,0.339,0.127,0.506,0.197c0.429,0.179,0.848,0.38,1.266,0.588
	l0.216,0.105c0.147,0.069,0.294,0.14,0.439,0.219c0.412,0.22,0.813,0.466,1.212,0.715L36.94,6.34
	c0.129,0.077,0.257,0.153,0.384,0.239c0.411,0.274,0.806,0.577,1.203,0.885l0.229,0.17c0.103,0.075,0.205,0.15,0.301,0.228
	c0.195,0.162,0.383,0.334,0.57,0.509L30.401,17.598z"/>
</svg>
