<?xml version="1.0" encoding="utf-8"?>
<!-- Generator: Adobe Illustrator 18.0.0, SVG Export Plug-In . SVG Version: 6.00 Build 0)  -->
<!DOCTYPE svg PUBLIC "-//W3C//DTD SVG 1.1//EN" "http://www.w3.org/Graphics/SVG/1.1/DTD/svg11.dtd">
<svg version="1.1" id="Capa_1" xmlns:sketch="http://www.bohemiancoding.com/sketch/ns"
	 xmlns="http://www.w3.org/2000/svg" xmlns:xlink="http://www.w3.org/1999/xlink" x="0px" y="0px" viewBox="0 0 32 32"
	 enable-background="new 0 0 32 32" xml:space="preserve">
<title>icon 22 volleyball</title>
<desc>Created with Sketch.</desc>
<path d="M16.5,4C9.6,4,4,9.6,4,16.5S9.6,29,16.5,29S29,23.4,29,16.5S23.4,4,16.5,4z M14.8,5.1c-0.1,0,0.4-0.1,0.8-0.1
	c0.3,0,0.6,0,0.9,0c4.2,0,7.8,2.2,9.8,5.5c0.2,0.3,0.5,0.9,0.5,0.9c-3.5-2.2-7.7-3.3-12-2.7C14.7,7.5,14.7,6.3,14.8,5.1z M8.9,7.9
	C8.9,7.9,8.9,7.9,8.9,7.9C9,7.8,9.3,7.5,9.6,7.3c1.1-0.8,2.3-1.4,3.6-1.8c0.3-0.1,0.7-0.2,0.6-0.2c-0.3,3.4,0.3,7,2.1,10.2
	c-1,1.7-2.2,3.1-3.6,4.2C9.6,16.2,8.5,12,8.9,7.9C8.9,7.9,8.8,7.9,8.9,7.9z M6.8,22.7C6.8,22.7,6.8,22.7,6.8,22.7
	c0-0.1-0.4-0.7-0.6-1.1C5.4,20.1,5,18.3,5,16.5c0-2.6,0.8-4.9,2.3-6.8C7.5,9.3,7.9,8.9,7.8,9c-0.1,4,1.1,8,3.7,11.4
	C10,21.4,8.5,22.2,6.8,22.7C6.8,22.7,6.8,22.7,6.8,22.7z M10.8,26.5c-1.1-0.7-2.2-1.5-3-2.5c-0.2-0.2-0.4-0.4-0.3-0.4
	c3.8-1.3,7.1-3.9,9.3-7.6c1.9,0,3.8,0.4,5.5,1c-2,4.9-6.2,8.4-10.9,9.7C11.5,26.9,11.1,26.7,10.8,26.5z M27.4,20.1L27.4,20.1
	c0,0.1-0.1,0.3-0.2,0.5c-1.7,4.3-5.8,7.4-10.7,7.4c-1.2,0-2.4-0.2-3.5-0.5c-0.1,0-0.2-0.1-0.2-0.1h0c0,0,0,0,0,0
	c4.6-1.7,8.4-5.2,10.4-10C24.8,18.1,26.2,19,27.4,20.1C27.4,20.1,27.4,20.1,27.4,20.1z M27.7,19.1C27.7,19.1,27.7,19.1,27.7,19.1
	c-3-2.5-6.8-4-10.9-4.1c-0.9-1.7-1.6-3.5-1.9-5.3c4.6-0.6,9.1,0.7,12.6,3.4c-0.1-0.2,0.1,0.2,0.2,0.6c0.2,0.9,0.3,1.8,0.3,2.8
	c0,0.6,0,1.2-0.1,1.7C27.8,18.6,27.7,19,27.7,19.1C27.7,19.1,27.7,19.1,27.7,19.1z"/>
</svg>
